<svg xmlns="http://www.w3.org/2000/svg" width="70" height="61" viewBox="0 0 70 61">
  <g id="Group_116" data-name="Group 116" transform="translate(-4810 -2168)">
    <g id="Group_115" data-name="Group 115" transform="translate(630 1313)">
      <path id="Polygon_1" data-name="Polygon 1" d="M25.505,12.525a6,6,0,0,1,10.989,0l6.625,15.1a6,6,0,0,0,.7,1.2l9.8,13.029a6,6,0,0,1-5.475,9.568L31.679,49.544a6,6,0,0,0-1.359,0L13.858,51.421a6,6,0,0,1-5.475-9.568l9.8-13.029a6,6,0,0,0,.7-1.2Z" transform="translate(4180 855)" fill="#fffee0"/>
      <path id="Path_26" data-name="Path 26" d="M24.51,12.443a6,6,0,0,1,10.979,0L41.718,26.56a6,6,0,0,0,.7,1.2l9.141,12.086A6,6,0,0,1,46.1,49.425L30.676,47.677a6,6,0,0,0-1.351,0L13.9,49.425a6,6,0,0,1-5.461-9.581l9.141-12.086a6,6,0,0,0,.7-1.2Z" transform="translate(4185 860)" fill="#ff6c6c"/>
      <path id="Polygon_3" data-name="Polygon 3" d="M25.505,12.525a6,6,0,0,1,10.989,0l6.625,15.1a6,6,0,0,0,.7,1.2l9.8,13.029a6,6,0,0,1-5.475,9.568L31.679,49.544a6,6,0,0,0-1.359,0L13.858,51.421a6,6,0,0,1-5.475-9.568l9.8-13.029a6,6,0,0,0,.7-1.2Z" transform="translate(4188 863)" fill="#353535"/>
    </g>
  </g>
</svg>
